<?xml version="1.0" encoding="UTF-8"?>
<svg version="1.1" xmlns="http://www.w3.org/2000/svg" width="1000" height="1000">
<path d="M0 0 C0.89156075 0.20487471 1.78312151 0.40974941 2.70169926 0.62083244 C5.2326607 1.20369975 7.75091308 1.82692469 10.26953125 2.4609375 C11.19416672 2.6927774 12.11880219 2.92461731 13.07145691 3.16348267 C15.00544471 3.65050293 16.93889848 4.13964852 18.87182617 4.63085938 C21.8201057 5.37692463 24.77218796 6.10646102 27.72460938 6.8359375 C29.6148399 7.31409107 31.5048231 7.79322362 33.39453125 8.2734375 C34.26962845 8.48712982 35.14472565 8.70082214 36.04634094 8.92098999 C42.42306703 10.57111436 47.1745557 12.63185604 51.3125 18 C53.4873945 21.86647912 54.12142031 24.8821894 54.14704514 29.28048325 C54.15803195 30.55995193 54.15803195 30.55995193 54.16924071 31.86526847 C54.17226518 32.79755153 54.17528965 33.72983459 54.17840576 34.69036865 C54.18546044 35.6845286 54.19251511 36.67868855 54.19978356 37.70297456 C54.222217 41.04383361 54.23758017 44.38468737 54.25292969 47.72558594 C54.26741714 50.11710845 54.28229366 52.50862863 54.29753113 54.90014648 C54.3374524 61.40434932 54.37082166 67.90857264 54.40211773 74.41282177 C54.42167222 78.47535685 54.44265012 82.53788381 54.46387482 86.60041046 C54.52237415 97.85191637 54.57896136 109.10342834 54.62871933 120.35497665 C54.6335001 121.4348929 54.6335001 121.4348929 54.63837744 122.53662564 C54.64157067 123.25827687 54.64476389 123.97992811 54.64805388 124.72344756 C54.65452615 126.18574891 54.66100169 127.64805024 54.66748047 129.11035156 C54.67069251 129.83570108 54.67390456 130.56105059 54.67721394 131.3083804 C54.72961126 143.05894091 54.79558116 154.80938292 54.86739931 166.55983922 C54.94096556 178.62849259 55.00312802 190.69716111 55.05390286 202.76593232 C55.08266966 209.54022589 55.11631852 216.31441653 55.16255951 223.08861542 C55.20542786 229.46118968 55.23385946 235.83366663 55.25121498 242.20635986 C55.26006134 244.54446229 55.27408992 246.88255176 55.29369926 249.22058868 C55.31968633 252.41442058 55.32692772 255.60777243 55.32952881 258.80169678 C55.34744984 260.18673704 55.34744984 260.18673704 55.36573291 261.59975791 C55.34064422 268.57293837 54.35599731 274.29525308 49.625 279.7265625 C44.76751304 283.29806858 38.69500021 284.66638511 33 286.375 C30.48037531 287.1533434 27.96084519 287.93199303 25.44140625 288.7109375 C24.18859863 289.0934668 22.93579102 289.47599609 21.64501953 289.87011719 C18.29916159 290.90726592 14.97395909 291.98959635 11.65234375 293.1015625 C10.68232422 293.42334473 9.71230469 293.74512695 8.71289062 294.07666016 C6.92903688 294.67012733 5.14754772 295.27077642 3.36914062 295.88037109 C-7.4618718 299.42424749 -18.78245734 299.20258444 -30.08056641 299.48071289 C-31.56870799 299.51997273 -33.05684157 299.55953741 -34.54496765 299.59938049 C-38.56024849 299.70594354 -42.5756312 299.80803543 -46.59105349 299.90911031 C-50.82747283 300.01634245 -55.06379869 300.12716171 -59.30014038 300.2374115 C-66.42659247 300.42229629 -73.55311549 300.60422481 -80.6796875 300.78442383 C-88.85188035 300.99110158 -97.0239376 301.20259613 -105.19593871 301.41671187 C-113.11994397 301.62419697 -121.04404093 301.82796873 -128.96818161 302.03021049 C-132.30801989 302.11552276 -135.64782164 302.20209595 -138.98759842 302.28978157 C-157.66218581 302.77874899 -176.3169102 303.14441081 -195 303 C-194.92875677 309.15676553 -194.8429943 315.31295579 -194.73754883 321.46923828 C-194.70435451 323.56226124 -194.67630555 325.65537253 -194.65356445 327.74853516 C-194.61991769 330.76242612 -194.56759607 333.77551163 -194.51171875 336.7890625 C-194.50532883 337.72054108 -194.4989389 338.65201965 -194.49235535 339.61172485 C-194.37330263 344.90728431 -193.66662587 348.30535482 -191 353 C-191 357.4953085 -191.49626736 359.39021839 -194.375 362.875 C-199.59508732 367.10078498 -205.57247846 366.45910868 -212 366 C-216.11422289 364.70077172 -217.46711438 363.75635378 -219.9375 360.25 C-221.21363045 356.34654216 -220.9722591 353.96382556 -220 350 C-219.34 349.01 -218.68 348.02 -218 347 C-217.6745031 344.96334774 -217.6745031 344.96334774 -217.68115234 342.7121582 C-217.66128265 341.85149246 -217.64141296 340.99082672 -217.62094116 340.1040802 C-217.60938995 339.17899155 -217.59783875 338.25390289 -217.5859375 337.30078125 C-217.55688828 335.87550362 -217.55688828 335.87550362 -217.5272522 334.4214325 C-217.46745088 331.3852131 -217.42106871 328.34895581 -217.375 325.3125 C-217.33682074 323.25454072 -217.29776904 321.19659742 -217.2578125 319.13867188 C-217.16174881 314.0925777 -217.07771969 309.04640871 -217 304 C-222.94 304 -228.88 304 -235 304 C-234.95586645 311.17208292 -234.88605045 318.34328392 -234.79248047 325.51489258 C-234.76426453 327.95427428 -234.74305315 330.39374752 -234.72900391 332.83325195 C-234.7075839 336.34113448 -234.66093565 339.84791571 -234.609375 343.35546875 C-234.60753204 344.99010323 -234.60753204 344.99010323 -234.60565186 346.65776062 C-234.54062412 352.68787413 -234.54062412 352.68787413 -232.04394531 358.05200195 C-231.36944336 358.69484131 -230.69494141 359.33768066 -230 360 C-227.73778846 364.84759616 -227.59878229 368.91297048 -229 374 C-231.59459599 378.91119955 -234.35828815 381.78325983 -239.671875 383.55859375 C-248.11225614 385.15886735 -258.43148758 385.22090116 -266 381 C-269.73213077 377.3660832 -271.93951998 373.35328102 -272.03515625 368.05078125 C-271.74744383 364.36665879 -271.44634992 362.53420638 -268.99560547 359.60107422 C-265.8610088 354.95140346 -266.3967622 349.67550305 -266.390625 344.2578125 C-266.37408875 343.13430389 -266.35755249 342.01079529 -266.34051514 340.85324097 C-266.29206585 337.27710485 -266.27067002 333.70139394 -266.25 330.125 C-266.22183791 327.69529114 -266.19191015 325.26560207 -266.16015625 322.8359375 C-266.08630754 316.89070211 -266.03464693 310.94558615 -266 305 C-267.98 305 -269.96 305 -272 305 C-271.98428955 305.86689453 -271.9685791 306.73378906 -271.95239258 307.62695312 C-271.90092801 310.87725574 -271.86348739 314.12734898 -271.83520508 317.37792969 C-271.82022086 318.77839031 -271.79982621 320.17880483 -271.77368164 321.57910156 C-271.50776449 336.19933085 -271.50776449 336.19933085 -275 343 C-279.04358112 347.1528671 -283.46861701 348.799617 -289.21471977 349.25447559 C-290.37869349 349.25652846 -291.5426672 349.25858133 -292.74191284 349.26069641 C-293.39476324 349.26452196 -294.04761364 349.26834751 -294.72024739 349.27228898 C-296.89414807 349.28255604 -299.06778151 349.27863894 -301.24169922 349.2746582 C-302.80594119 349.2790082 -304.37018103 349.2841923 -305.93441772 349.29014587 C-310.17415787 349.30351685 -314.41380877 349.30411662 -318.65356588 349.30158257 C-322.19719823 349.30051148 -325.74081262 349.30539982 -329.28444111 349.310188 C-337.64716065 349.32127681 -346.00983527 349.32172424 -354.37255859 349.31567383 C-362.98971314 349.30963503 -371.60670437 349.32194409 -380.22383106 349.3432439 C-387.63124501 349.36087794 -395.03860706 349.36685838 -402.44604123 349.36360615 C-406.86614049 349.36179588 -411.28612327 349.36440379 -415.70620346 349.37832069 C-419.86444417 349.39092364 -424.02243093 349.38893172 -428.18066788 349.37590981 C-429.70279273 349.37354976 -431.2249356 349.37625815 -432.74703979 349.38453293 C-450.4324052 349.47371073 -450.4324052 349.47371073 -456.375 343.6875 C-459.28469258 338.87531611 -460.25293046 334.53425432 -460.1953125 328.9453125 C-460.18886719 327.83671875 -460.18242187 326.728125 -460.17578125 325.5859375 C-460.15902344 324.44382812 -460.14226562 323.30171875 -460.125 322.125 C-460.11597656 320.9596875 -460.10695313 319.794375 -460.09765625 318.59375 C-460.07417432 315.72895423 -460.04133141 312.86458465 -460 310 C-462.31 310.33 -464.62 310.66 -467 311 C-466.65066406 311.74765625 -466.30132812 312.4953125 -465.94140625 313.265625 C-465.48636719 314.25046875 -465.03132813 315.2353125 -464.5625 316.25 C-464.11003906 317.22453125 -463.65757812 318.1990625 -463.19140625 319.203125 C-459.24616124 328.46474935 -459.38828314 341.68345661 -462.625 351.125 C-466.75655961 360.44267815 -472.02520789 367.58305639 -481.3203125 372.13671875 C-487.83750586 374.23628104 -496.25561254 374.29579536 -502.5 371.3125 C-503.69115071 370.58006903 -504.86051697 369.81047737 -506 369 C-507.03125 368.29875 -508.0625 367.5975 -509.125 366.875 C-515.78091785 360.96265881 -520.16686854 351.43801827 -521.30102539 342.67382812 C-521.43565611 340.31543517 -521.46699699 337.98693506 -521.4375 335.625 C-521.43049072 334.38544556 -521.43049072 334.38544556 -521.42333984 333.12084961 C-521.26399623 326.50938501 -519.98687628 320.94104953 -517 315 C-516.34 313.68 -515.68 312.36 -515 311 C-518.96 311.66 -522.92 312.32 -527 313 C-526.51402344 314.28132813 -526.02804687 315.56265625 -525.52734375 316.8828125 C-523.84590858 321.94990705 -523.49743308 326.56461713 -523.5625 331.875 C-523.57079834 332.75196533 -523.57909668 333.62893066 -523.58764648 334.5324707 C-523.87314196 345.50017052 -527.12560896 354.17112567 -535 362 C-541.335212 367.48522828 -547.26978513 368.98111799 -555.59765625 368.57421875 C-563.03645405 367.31876149 -568.06149089 363.47066293 -572.875 357.8125 C-578.69851709 349.46958899 -580.34245989 341.91880242 -580.4375 331.875 C-580.44773193 331.0399292 -580.45796387 330.2048584 -580.46850586 329.34448242 C-580.38520111 323.43334059 -579.16897192 318.48811865 -577 313 C-579.31 313 -581.62 313 -584 313 C-583.67773438 313.79019531 -583.35546875 314.58039063 -583.0234375 315.39453125 C-580.23822738 325.2065501 -580.49004021 338.34429411 -584.6796875 347.67578125 C-588.88482609 355.07831811 -593.61514439 361.33612757 -602 364 C-609.83645492 365.27821724 -616.19133719 364.5161491 -622.77734375 359.96484375 C-629.22914427 354.26140674 -632.90316216 347.26753206 -635 339 C-635.30292969 339.54269531 -635.60585938 340.08539062 -635.91796875 340.64453125 C-638.81175558 345.58622876 -641.1187629 348.8074338 -646.81060791 350.55633545 C-649.40416466 351.08190106 -651.82067019 351.14234095 -654.46777344 351.16113281 C-655.56281189 351.17074036 -656.65785034 351.1803479 -657.78607178 351.19024658 C-658.96526184 351.19449646 -660.1444519 351.19874634 -661.359375 351.203125 C-663.18689301 351.21167511 -663.18689301 351.21167511 -665.05133057 351.22039795 C-667.6302402 351.2298442 -670.20916188 351.23638044 -672.78808594 351.24023438 C-676.72091915 351.24992832 -680.65322717 351.28095156 -684.5859375 351.3125 C-687.0937469 351.31903148 -689.60156004 351.32428138 -692.109375 351.328125 C-693.86601471 351.3466452 -693.86601471 351.3466452 -695.65814209 351.36553955 C-703.10724243 351.34535669 -709.76001196 351.15472519 -715.375 345.6875 C-719.16982633 339.41144108 -719.25712459 333.74956465 -719.125 326.625 C-719.11597656 325.69816406 -719.10695313 324.77132813 -719.09765625 323.81640625 C-719.07422937 321.54399923 -719.04142748 319.2721382 -719 317 C-719.7734375 317.03480469 -720.546875 317.06960938 -721.34375 317.10546875 C-728.00876894 317.27869325 -733.03569744 317.08865668 -739 314 C-743.49380719 309.27574116 -744.15156632 306.07561212 -744.17840576 299.76550293 C-744.18546044 299.011309 -744.19251511 298.25711507 -744.19978356 297.48006678 C-744.22226154 294.93920027 -744.23759537 292.39834083 -744.25292969 289.85742188 C-744.26741399 288.04085994 -744.28229043 286.2243011 -744.29753113 284.40774536 C-744.33749707 279.46109726 -744.3708061 274.51442634 -744.40211773 269.5677166 C-744.42182625 266.47639702 -744.44267626 263.38508716 -744.46387482 260.29377747 C-744.52988377 250.61993683 -744.59184356 240.9460827 -744.64805388 231.27218008 C-744.71294867 220.10979697 -744.79104598 208.94761077 -744.88073611 197.78539991 C-744.94927063 189.15688027 -745.00602139 180.5283327 -745.05390286 171.89967394 C-745.0827516 166.74723025 -745.11653038 161.59493299 -745.16255951 156.44261169 C-745.20557933 151.5901368 -745.23391504 146.73779115 -745.25121498 141.88515854 C-745.26002747 140.10905939 -745.27401245 138.33297678 -745.29369926 136.55696487 C-745.52511255 115.02870005 -745.52511255 115.02870005 -739.8125 108.5 C-733.66384261 105.22071606 -726.4544937 104.50503823 -719.62908936 103.51010132 C-718.71323397 103.37332735 -717.79737859 103.23655339 -716.85377002 103.09563476 C-713.78684925 102.63860292 -710.71912132 102.18724126 -707.65136719 101.73583984 C-705.42887599 101.40582759 -703.20643737 101.07546112 -700.98404694 100.744771 C-696.1539264 100.02685154 -691.32343733 99.31148175 -686.49265289 98.59804344 C-679.3184609 97.53851453 -672.14493319 96.47453775 -664.97157237 95.40939935 C-652.89936913 93.61695675 -640.82665627 91.82796988 -628.75366211 90.04086304 C-610.5909957 87.35226104 -592.42919767 84.65782163 -574.26757812 81.9621582 C-572.72167473 81.73271208 -571.17577121 81.50326683 -569.62986755 81.27382243 C-563.39058348 80.34777856 -557.1513007 79.42172602 -550.91202736 78.49560982 C-541.3739884 77.07986395 -531.83588582 75.66454746 -522.29773903 74.24952823 C-464.18913365 65.62886221 -406.08641605 56.96902068 -347.98627269 48.29152373 C-329.72548047 45.56421385 -311.46426031 42.83979073 -293.20265038 40.11796162 C-280.87187851 38.28008083 -268.54124105 36.44129857 -256.21068212 34.60198969 C-254.86610465 34.40142369 -253.5215264 34.20086283 -252.17694739 34.00030714 C-216.60488212 28.6943641 -181.03849488 23.35253175 -145.48007643 17.95586044 C-137.7296535 16.77980182 -129.97878321 15.60673334 -122.22756958 14.43589783 C-121.16804199 14.27584383 -120.1085144 14.11578983 -119.01687992 13.95088571 C-114.82692544 13.31801976 -110.63695503 12.68525992 -106.44692016 12.05292642 C-94.62570286 10.26889824 -82.80616111 8.47470195 -70.98954386 6.6604436 C-63.86356204 5.56718294 -56.73578263 4.48626121 -49.60638624 3.41549462 C-45.57953885 2.81023236 -41.55379875 2.19921637 -37.53031731 1.57193565 C-33.89206618 1.00472303 -30.25171391 0.453984 -26.60900021 -0.08380163 C-24.69614264 -0.37055 -22.78594706 -0.67489003 -20.87593842 -0.98003864 C-13.43582059 -2.05730531 -7.28549524 -1.82874751 0 0 Z M-39.14472961 34.26957703 C-40.0721649 34.40676362 -40.99960019 34.54395021 -41.95513958 34.68529397 C-45.07909784 35.14830638 -48.20225233 35.61653307 -51.32543945 36.0847168 C-53.57932625 36.41987892 -55.83326054 36.7547218 -58.08723831 37.08927155 C-64.28617521 38.0103097 -70.48442479 38.93590251 -76.6825726 39.86223388 C-82.65433717 40.75401594 -88.62660627 41.64240168 -94.59886508 42.53086606 C-106.78904511 44.34446576 -118.97871278 46.1614873 -131.16809082 47.98046875 C-143.28706506 49.78893749 -155.40626369 51.59589077 -167.52575684 53.40087891 C-168.28161382 53.51345195 -169.03747081 53.62602498 -169.81623255 53.74200933 C-172.88219639 54.19863179 -175.94816177 54.65524396 -179.01412915 55.11184265 C-213.6415499 60.26873746 -248.26798213 65.43225071 -282.89414854 70.59756006 C-298.35093925 72.90330249 -313.8078496 75.20824219 -329.26479101 77.51297414 C-373.04039755 84.04021671 -416.81582207 90.56867817 -460.59033203 97.10327148 C-461.84461046 97.29050754 -463.09888888 97.47774359 -464.39117575 97.67065346 C-474.33904178 99.1556575 -484.28690397 100.64068733 -494.23476028 102.1257565 C-526.83600683 106.99262366 -559.43795184 111.85476253 -592.04111099 116.70880127 C-597.97565944 117.5923537 -603.91018023 118.47609171 -609.84469604 119.35986328 C-613.6253041 119.92285876 -617.4059135 120.48584527 -621.18652344 121.04882812 C-622.55699636 121.25291196 -622.55699636 121.25291196 -623.95515561 121.4611187 C-634.48987035 123.02986074 -645.02470138 124.59781701 -655.5597319 126.16443706 C-661.87705604 127.10391268 -668.19425571 128.04422191 -674.51135308 128.98522115 C-678.75128451 129.61675943 -682.99136495 130.24728311 -687.23157465 130.87695026 C-690.3507398 131.34046931 -693.46966429 131.80560235 -696.58862305 132.27050781 C-697.68715481 132.43329979 -698.78568657 132.59609177 -699.91750717 132.76381683 C-700.92000126 132.91356209 -701.92249535 133.06330734 -702.95536804 133.21759033 C-703.81592143 133.3455965 -704.67647482 133.47360268 -705.56310558 133.60548782 C-708.05285961 134.00855752 -710.52680907 134.50536181 -713 135 C-713 179.55 -713 224.1 -713 270 C-705.94654024 270 -699.06517999 269.91023533 -692.05348778 269.4260931 C-691.1115685 269.36403208 -690.16964921 269.30197105 -689.19918692 269.23802939 C-686.05998978 269.03030546 -682.92116726 268.81738977 -679.78231812 268.60447693 C-677.50066662 268.45241127 -675.21899366 268.30066728 -672.93730128 268.14921623 C-666.67715028 267.73275624 -660.41731266 267.31174199 -654.15751696 266.88997972 C-648.09159816 266.48200215 -642.02545006 266.07747628 -635.95930607 265.67286327 C-623.52928884 264.84365935 -611.09950184 264.01105096 -598.66984177 263.17651176 C-586.29778607 262.34585286 -573.92562789 261.51674649 -561.55333328 260.6896534 C-560.7804962 260.63798809 -560.00765911 260.58632279 -559.21140272 260.53309187 C-555.28364907 260.2705238 -551.35589358 260.00798314 -547.42813738 259.74545313 C-519.56354949 257.8829444 -491.69918869 256.01705814 -463.83496094 254.14916992 C-437.03005619 252.35230256 -410.22505845 250.55683358 -383.41992188 248.76342773 C-382.6009725 248.70863505 -381.78202312 248.65384237 -380.9382571 248.59738931 C-371.88220799 247.9914867 -362.82615594 247.38562792 -353.77010226 246.77979362 C-337.53940401 245.69398762 -321.30871589 244.60803014 -305.07803345 243.52198792 C-304.28656245 243.4690288 -303.49509146 243.41606969 -302.6796365 243.36150576 C-280.37788227 241.86923853 -258.07618434 240.37613308 -235.77455188 238.88204721 C-232.11445526 238.63684351 -228.45435656 238.39167078 -224.79425703 238.1465105 C-221.18349385 237.90465464 -217.57273145 237.66278704 -213.96196938 237.42091465 C-213.2533103 237.37344431 -212.54465122 237.32597396 -211.81451762 237.27706512 C-203.41721443 236.71454552 -195.01993289 236.15170437 -186.62268334 235.58838451 C-179.20784326 235.0909706 -171.79298668 234.59380315 -164.37811279 234.09689331 C-163.0697598 234.00921321 -161.7614068 233.92153312 -160.41340674 233.83119605 C-142.05529006 232.6014054 -123.69642355 231.38335701 -105.33696197 230.1738173 C-97.88366521 229.68252139 -90.43046999 229.18968656 -82.97726745 228.69696351 C-76.0525133 228.2394478 -69.12757189 227.78491407 -62.20246798 227.33272496 C-58.01877571 227.05889199 -53.83526387 226.782378 -49.65179798 226.50511019 C-47.73045482 226.37835627 -45.8090345 226.25276574 -43.88753346 226.12842806 C-41.28297891 225.95977273 -38.6787237 225.78706548 -36.07450294 225.61334324 C-35.32134529 225.56559288 -34.56818764 225.51784252 -33.79220702 225.46864518 C-30.12110913 225.21937891 -26.58725275 224.82998879 -23 224 C-22.87969791 186.91340283 -22.96649413 149.8341075 -23.4375 112.75 C-23.45393177 111.45626339 -23.45393177 111.45626339 -23.4706955 110.13639069 C-23.8003754 84.42022815 -24.21240945 58.7068544 -25 33 C-29.8085307 32.80214725 -34.40662851 33.5535947 -39.14472961 34.26957703 Z M7 35 C6.82110889 77.63993565 7.2911625 120.26629492 7.83422244 162.90197158 C7.92799021 170.29643581 8.01601311 177.69096078 8.10283273 185.08550942 C8.18803084 192.32579588 8.27658773 199.56603593 8.36784559 206.80624855 C8.42174076 211.08427414 8.47444338 215.362305 8.5238781 219.64038467 C8.57007236 223.62522314 8.62049303 227.60998672 8.67408943 231.59473228 C8.69290855 233.04466475 8.71028772 234.49461681 8.7260437 235.9445858 C8.81467787 244.01200756 9.10759954 251.97871214 10 260 C11.81358154 259.52494322 13.62584179 259.04483958 15.4375 258.5625 C16.44683594 258.29566406 17.45617187 258.02882813 18.49609375 257.75390625 C20.91752001 257.24021923 20.91752001 257.24021923 22 256 C22.09790618 253.19314649 22.12992803 250.41090064 22.12025452 247.60362244 C22.12110894 246.7125536 22.12196337 245.82148476 22.12284368 244.90341383 C22.12450122 241.89384123 22.11897265 238.88432339 22.11352539 235.87475586 C22.11324355 233.72685243 22.11340119 231.5789489 22.1139679 229.43104553 C22.114256 223.58004331 22.1083572 217.7290614 22.10139394 211.87806392 C22.09516253 205.77080687 22.09455677 199.66354941 22.09336853 193.55628967 C22.09025458 181.98238035 22.08204035 170.40848042 22.07201904 158.83457524 C22.06085986 145.66188977 22.05534795 132.48920386 22.05032361 119.31651485 C22.03985778 92.21100468 22.02225712 65.10550287 22 38 C20.0636296 37.49564306 18.12585854 36.99666126 16.1875 36.5 C15.10855469 36.2215625 14.02960937 35.943125 12.91796875 35.65625 C10.01066025 34.89029052 10.01066025 34.89029052 7 35 Z M-47.132967 245.44731712 C-48.28672042 245.49568077 -49.44047384 245.54404441 -50.62918949 245.59387362 C-54.47581932 245.75579546 -58.32226949 245.92164132 -62.16873169 246.0874939 C-64.96203098 246.20622328 -67.75536501 246.32412657 -70.54869735 246.44207537 C-77.40757334 246.73219839 -84.26631955 247.02528912 -91.12502936 247.31931168 C-99.34469103 247.67153855 -107.56448805 248.02056004 -115.7842878 248.36954699 C-135.6378674 249.21263371 -155.49120372 250.06138257 -175.34451011 250.91087424 C-184.73440709 251.31262002 -194.12433204 251.71371034 -203.51425965 252.11473945 C-235.6560981 253.48749594 -267.7978796 254.8615766 -299.93948555 256.23976707 C-301.9550677 256.32618917 -303.97064986 256.41261099 -305.98623203 256.49903253 C-306.98575892 256.54188933 -307.9852858 256.58474612 -309.01510138 256.6289016 C-314.07907782 256.8460297 -319.14305445 257.06315368 -324.20703125 257.28027344 C-325.21198027 257.32336236 -326.21692929 257.36645128 -327.25233131 257.41084592 C-359.88292967 258.80988777 -392.51384178 260.20143366 -425.14494851 261.58856466 C-459.64667201 263.05524312 -494.1481005 264.52867674 -528.64920413 266.00986731 C-532.43237314 266.17225957 -536.21554335 266.3346238 -539.99871445 266.49696732 C-541.39599415 266.55693209 -541.39599415 266.55693209 -542.82150172 266.61810828 C-557.83586538 267.26229481 -572.85048585 267.90029522 -587.86520656 268.5360989 C-602.93636381 269.17444706 -618.00721506 269.8196558 -633.07777651 270.47192119 C-642.03965114 270.85959601 -651.00171408 271.24203538 -659.96412549 271.61710061 C-665.94166958 271.86776443 -671.91889957 272.12514185 -677.89591525 272.38810333 C-681.30698833 272.5379806 -684.71812096 272.68482904 -688.12966777 272.82354371 C-691.79535928 272.97414226 -695.4603748 273.13605422 -699.12544441 273.3010006 C-700.19678053 273.34227259 -701.26811664 273.38354458 -702.37191749 273.42606723 C-703.82836883 273.49516276 -703.82836883 273.49516276 -705.31424344 273.56565416 C-706.57262166 273.61946747 -706.57262166 273.61946747 -707.85642166 273.67436793 C-710.29343806 273.88980398 -710.29343806 273.88980398 -713 276 C-711.576875 276.309375 -711.576875 276.309375 -710.125 276.625 C-709.09375 277.07875 -708.0625 277.5325 -707 278 C-706.34 279.98 -705.68 281.96 -705 284 C-700.71 284 -696.42 284 -692 284 C-691.34 281.69 -690.68 279.38 -690 277 C-687.1875 276.3125 -687.1875 276.3125 -684 276 C-682.1875 277.125 -682.1875 277.125 -681 279 C-680.63575065 280.66018412 -680.2989765 282.32682878 -680 284 C-678.083412 284.02712153 -676.1667127 284.04645097 -674.25 284.0625 C-673.18265625 284.07410156 -672.1153125 284.08570313 -671.015625 284.09765625 C-667.80102903 284.0997216 -667.80102903 284.0997216 -664 283 C-663.34 280.36 -662.68 277.72 -662 275 C-656.56180812 273.67066421 -656.56180812 273.67066421 -654.1875 275.0625 C-653 277 -653 277 -652 283 C-647.05 283 -642.1 283 -637 283 C-636.34 280.36 -635.68 277.72 -635 275 C-632.1875 274.3125 -632.1875 274.3125 -629 274 C-627.1875 275.125 -627.1875 275.125 -626 277 C-625.505 279.475 -625.505 279.475 -625 282 C-619.72 282 -614.44 282 -609 282 C-608.01 277.545 -608.01 277.545 -607 273 C-601.58614052 271.67661213 -601.58614052 271.67661213 -599.1875 273 C-598 275 -598 275 -597 282 C-589.08 281.505 -589.08 281.505 -581 281 C-580.34 278.36 -579.68 275.72 -579 273 C-573.56180812 271.67066421 -573.56180812 271.67066421 -571.1875 273.0625 C-569.61959334 275.6206635 -569.43532215 278.05658324 -569 281 C-566.20826945 281.02690104 -563.41679652 281.04679053 -560.625 281.0625 C-559.43390625 281.07506836 -559.43390625 281.07506836 -558.21875 281.08789062 C-553.97607778 281.23040151 -553.97607778 281.23040151 -550 280 C-549.31527335 278.11235097 -549.31527335 278.11235097 -548.875 275.9375 C-548.62363281 274.83728516 -548.62363281 274.83728516 -548.3671875 273.71484375 C-548.24601563 273.14894531 -548.12484375 272.58304688 -548 272 C-542.56180812 270.67066421 -542.56180812 270.67066421 -540.1875 272.0625 C-539 274 -539 274 -538 280 C-532.72 280 -527.44 280 -522 280 C-521.34 276.7 -520.68 273.4 -520 270 C-514.58614052 268.67661213 -514.58614052 268.67661213 -512.1875 270 C-511 272 -511 272 -510 279 C-502.41 279 -494.82 279 -487 279 C-486.34 275.7 -485.68 272.4 -485 269 C-479.61267606 267.68309859 -479.61267606 267.68309859 -477.1875 268.9375 C-475.32852061 272.16625367 -475.30296284 275.30385339 -475 279 C-467.08 278.505 -467.08 278.505 -459 278 C-458.896875 276.576875 -458.79375 275.15375 -458.6875 273.6875 C-458.48718944 270.92321421 -458.32220029 269.43146822 -456.65234375 267.1953125 C-455 266 -455 266 -451.875 266.1875 C-450.92625 266.455625 -449.9775 266.72375 -449 267 C-447.85185003 269.29629994 -447.69230191 271.07698086 -447.4375 273.625 C-447.31181641 274.85089844 -447.31181641 274.85089844 -447.18359375 276.1015625 C-447.12300781 276.72804688 -447.06242187 277.35453125 -447 278 C-445.06257659 278.02703381 -443.12504521 278.04641125 -441.1875 278.0625 C-439.56908203 278.07990234 -439.56908203 278.07990234 -437.91796875 278.09765625 C-434.93487831 278.13624766 -434.93487831 278.13624766 -432 277 C-431.96261719 276.38511719 -431.92523438 275.77023437 -431.88671875 275.13671875 C-431.78810547 273.92435547 -431.78810547 273.92435547 -431.6875 272.6875 C-431.62949219 271.88699219 -431.57148438 271.08648438 -431.51171875 270.26171875 C-430.90672152 267.58772336 -430.20948966 266.59835422 -428 265 C-424.875 265.1875 -424.875 265.1875 -422 266 C-421 268 -421 268 -420 277 C-413.07 277 -406.14 277 -399 277 C-398.67 273.7 -398.34 270.4 -398 267 C-397.01 266.01 -396.02 265.02 -395 264 C-392.375 264.1875 -392.375 264.1875 -390 265 C-389 267 -389 267 -388 276 C-379.42 276 -370.84 276 -362 276 C-361.67 272.04 -361.34 268.08 -361 264 C-360.01 263.01 -359.02 262.02 -358 261 C-354.875 261.1875 -354.875 261.1875 -352 262 C-350.03927451 265.92145098 -350.39693727 270.63369 -350 275 C-341.42 275 -332.84 275 -324 275 C-323.67 271.37 -323.34 267.74 -323 264 C-322.01 263.01 -321.02 262.02 -320 261 C-316.875 261.1875 -316.875 261.1875 -314 262 C-313 264 -313 264 -312 274 C-304.74 274 -297.48 274 -290 274 C-289.896875 272.081875 -289.79375 270.16375 -289.6875 268.1875 C-289.38391502 262.54081942 -289.38391502 262.54081942 -287.65234375 260.1015625 C-286 259 -286 259 -282.875 259.1875 C-281.92625 259.455625 -280.9775 259.72375 -280 260 C-278.03927451 263.92145098 -278.39693727 268.63369 -278 273 C-266.12 273 -254.24 273 -242 273 C-241.67 268.38 -241.34 263.76 -241 259 C-239.515 257.515 -239.515 257.515 -238 256 C-234.875 256.1875 -234.875 256.1875 -232 257 C-230.58365167 259.83269666 -230.6536995 262.47466438 -230.4375 265.625 C-230.31181641 267.40777344 -230.31181641 267.40777344 -230.18359375 269.2265625 C-230.12300781 270.14179687 -230.06242187 271.05703125 -230 272 C-225.62501407 272.02913072 -221.25005326 272.04684286 -216.875 272.0625 C-215.01875 272.07506836 -215.01875 272.07506836 -213.125 272.08789062 C-211.92617188 272.09111328 -210.72734375 272.09433594 -209.4921875 272.09765625 C-207.84259033 272.10551147 -207.84259033 272.10551147 -206.15966797 272.11352539 C-203.02381895 272.0008558 -200.07940617 271.58626376 -197 271 C-196.94392578 269.53626953 -196.94392578 269.53626953 -196.88671875 268.04296875 C-196.82097656 266.77066406 -196.75523437 265.49835938 -196.6875 264.1875 C-196.60048828 262.29064453 -196.60048828 262.29064453 -196.51171875 260.35546875 C-196 257 -196 257 -194.65234375 255.0390625 C-193 254 -193 254 -189.875 254.1875 C-188.92625 254.455625 -187.9775 254.72375 -187 255 C-185.5192152 257.9615696 -185.64685963 260.83506295 -185.4375 264.125 C-185.35371094 265.40632813 -185.26992188 266.68765625 -185.18359375 268.0078125 C-185.12300781 268.99523437 -185.06242188 269.98265625 -185 271 C-181.66668561 271.02937438 -178.33340517 271.04692334 -175 271.0625 C-174.06542969 271.07087891 -173.13085938 271.07925781 -172.16796875 271.08789062 C-166.67725599 271.10708892 -161.43133519 270.8134193 -156 270 C-155.94392578 268.53626953 -155.94392578 268.53626953 -155.88671875 267.04296875 C-155.82097656 265.77066406 -155.75523437 264.49835938 -155.6875 263.1875 C-155.60048828 261.29064453 -155.60048828 261.29064453 -155.51171875 259.35546875 C-155 256 -155 256 -153.65234375 254.0390625 C-152 253 -152 253 -148.875 253.1875 C-147.92625 253.455625 -146.9775 253.72375 -146 254 C-144.5192152 256.9615696 -144.64685963 259.83506295 -144.4375 263.125 C-144.35371094 264.40632813 -144.26992188 265.68765625 -144.18359375 267.0078125 C-144.12300781 267.99523437 -144.06242188 268.98265625 -144 270 C-133.27132003 270.10947633 -122.6948466 269.96288008 -112 269 C-111.94392578 267.42798828 -111.94392578 267.42798828 -111.88671875 265.82421875 C-111.82105485 264.44527695 -111.75460765 263.06637229 -111.6875 261.6875 C-111.66494141 260.99720703 -111.64238281 260.30691406 -111.61914062 259.59570312 C-111.4617358 256.63363051 -111.33412624 254.48273196 -109.62109375 252.0078125 C-108 251 -108 251 -105.375 251.1875 C-103 252 -103 252 -102 254 C-101.76827173 256.54615009 -101.58105471 259.07396225 -101.4375 261.625 C-101.37272461 262.68460938 -101.37272461 262.68460938 -101.30664062 263.765625 C-101.20055249 265.51018537 -101.09977111 267.25506697 -101 269 C-88.3141797 269.20100772 -75.66894665 268.58707468 -63 268 C-62.94392578 266.31970703 -62.94392578 266.31970703 -62.88671875 264.60546875 C-62.82105743 263.1327791 -62.75461014 261.66012434 -62.6875 260.1875 C-62.66494141 259.44951172 -62.64238281 258.71152344 -62.61914062 257.95117188 C-62.34901101 252.52402233 -62.34901101 252.52402233 -60.65234375 249.9765625 C-59 249 -59 249 -55.875 249.1875 C-54.451875 249.5896875 -54.451875 249.5896875 -53 250 C-51.41517429 253.16965142 -51.62147177 256.63744541 -51.4375 260.125 C-51.293125 262.72375 -51.14875 265.3225 -51 268 C-36.645 267.505 -36.645 267.505 -22 267 C-22 259.74 -22 252.48 -22 245 C-30.39478711 244.95912427 -38.74702487 245.07957087 -47.132967 245.44731712 Z M-360.63110352 306.86883545 C-364.02280186 306.95993612 -367.41458038 307.04781534 -370.80636406 307.13567162 C-390.20934614 307.63925496 -409.60587401 308.21973545 -429 309 C-429 311.97 -429 314.94 -429 318 C-387.42 318 -345.84 318 -303 318 C-303 314.04 -303 310.08 -303 306 C-322.22145796 305.81742793 -341.41897868 306.34826245 -360.63110352 306.86883545 Z M-617 318 C-620.83839642 324.57477148 -620.77245575 330.55556383 -620 338 C-618.81860293 342.00463313 -616.98167884 344.83652878 -614.3125 348 C-610.55906289 349.62310794 -607.00610046 349.75965411 -603 349 C-598.93049678 345.99210632 -596.97396936 342.60039918 -595 338 C-593.98588565 330.12462548 -594.09161042 322.51601544 -599 316 C-600.93829488 313.70276163 -602.14258841 313.14182748 -605.078125 312.65625 C-610.81121826 312.27657495 -613.45651338 313.20587104 -617 318 Z M-635 314 C-635 315.65 -635 317.3 -635 319 C-632.81509993 316.32357511 -632.81509993 316.32357511 -633 314 C-633.66 314 -634.32 314 -635 314 Z M-563.2578125 319.51953125 C-567.29042575 325.99145252 -566.78556097 333.6654256 -566 341 C-564.74966714 345.68523604 -562.81839817 348.25600167 -559.25 351.5 C-555.25485742 353.34391196 -552.31913622 353.82927416 -548 353 C-543.39714036 350.87560324 -540.73324252 348.16940447 -538.6953125 343.60546875 C-536.81675702 336.56616254 -536.6148427 328.05373462 -539.625 321.3125 C-541.81397987 317.79941692 -544.20346196 315.75224833 -548 314 C-554.36693573 312.77754834 -559.03289134 314.41551159 -563.2578125 319.51953125 Z M-502 319 C-506.98563509 326.21359077 -507.0456053 334.52699156 -506 343 C-504.44953145 347.95641586 -502.11747472 351.65903033 -498.8125 355.625 C-494.52640014 357.7204266 -490.67095131 357.83972158 -486 357 C-481.220334 354.25611767 -478.72402138 350.90269539 -476.69921875 345.78515625 C-474.73368945 337.95598087 -474.74083748 329.68574007 -478.1875 322.3125 C-480.34655374 318.70807973 -482.14408084 315.88511603 -486 314 C-492.52118515 312.87301666 -497.79970797 313.44773897 -502 319 Z M-680.375 315.5 C-681.62023437 315.5928125 -682.86546875 315.685625 -684.1484375 315.78125 C-685.08945312 315.8534375 -686.03046875 315.925625 -687 316 C-687 316.99 -687 317.98 -687 319 C-680.4 319 -673.8 319 -667 319 C-667 317.68 -667 316.36 -667 315 C-671.48639256 314.94478286 -675.90163162 315.16238729 -680.375 315.5 Z " fill="#FFFFFF" transform="translate(844,301)"/>
<path d="M0 0 C4.84734762 -0.03810647 9.6935386 -0.00544034 14.54077148 0.03515625 C12.44471253 6.95598507 9.6796141 13.40238141 6.54077148 19.91015625 C5.81337769 21.41908447 5.81337769 21.41908447 5.07128906 22.95849609 C-5.7116528 45.0261551 -19.04426107 65.91112667 -34.45922852 85.03515625 C-35.56137695 86.42541016 -35.56137695 86.42541016 -36.68579102 87.84375 C-45.17685495 98.42007522 -54.46502116 108.14019899 -64.00869751 117.75985718 C-65.41767002 119.18074627 -66.82266699 120.60557413 -68.22753906 122.03051758 C-74.32647004 128.13707972 -80.68893856 133.68774666 -87.45922852 139.03515625 C-88.58699707 139.94382446 -88.58699707 139.94382446 -89.73754883 140.87084961 C-100.2197957 149.30769235 -110.97632257 157.02151747 -122.45922852 164.03515625 C-123.15902832 164.46280273 -123.85882812 164.89044922 -124.57983398 165.33105469 C-129.49412481 168.31372328 -134.45833196 171.20041718 -139.45922852 174.03515625 C-140.43931885 174.59517334 -140.43931885 174.59517334 -141.43920898 175.16650391 C-186.14011801 200.49441212 -240.51253538 216.01155989 -291.99438477 216.23828125 C-293.06310318 216.24529556 -294.13182159 216.25230988 -295.23292542 216.25953674 C-298.66256977 216.27694705 -302.09204159 216.2833889 -305.52172852 216.28515625 C-307.27740143 216.28616837 -307.27740143 216.28616837 -309.06854248 216.28720093 C-325.74115818 216.27190023 -342.00286665 215.9443958 -358.45922852 213.03515625 C-360.0114209 212.77774658 -360.0114209 212.77774658 -361.5949707 212.51513672 C-419.92681603 202.74660411 -475.30170325 179.24053425 -521.45922852 142.03515625 C-522.38606445 141.30039062 -523.31290039 140.565625 -524.26782227 139.80859375 C-534.84414748 131.31752982 -544.56427126 122.02936361 -554.18392944 112.48568726 C-555.60481854 111.07671474 -557.0296464 109.67171778 -558.45458984 108.2668457 C-564.56073048 102.1683357 -570.12105001 95.81263886 -575.45922852 89.03515625 C-576.09159424 88.24077148 -576.72395996 87.44638672 -577.37548828 86.62792969 C-579.14405413 84.39740901 -580.89758192 82.15592486 -582.64672852 79.91015625 C-583.22358398 79.17667969 -583.80043945 78.44320312 -584.39477539 77.6875 C-595.45922852 63.49206859 -595.45922852 63.49206859 -595.45922852 60.03515625 C-594.85594727 60.24011719 -594.25266602 60.44507813 -593.63110352 60.65625 C-592.83188477 60.92566406 -592.03266602 61.19507813 -591.20922852 61.47265625 C-590.42032227 61.73949219 -589.63141602 62.00632812 -588.81860352 62.28125 C-577.4066475 65.92778562 -561.31711543 66.27200337 -550.54516602 60.8125 C-546.76445312 59.40358265 -543.98779446 60.8091114 -540.40844727 62.33984375 C-539.33208008 62.85804688 -538.25571289 63.37625 -537.14672852 63.91015625 C-533.48578483 65.66014511 -529.97107088 67.25399179 -526.08422852 68.41015625 C-521.16448016 70.61556069 -518.78772437 73.91088208 -515.45922852 78.03515625 C-510.8542331 83.0883264 -505.71602203 87.38426173 -500.39282227 91.66015625 C-497.49446484 94.00662938 -494.66710594 96.42280643 -491.83422852 98.84765625 C-480.44530001 108.33597444 -468.15907557 116.58442696 -455.31420898 123.96289062 C-453.45671152 125.03661119 -451.6160071 126.13551653 -449.77563477 127.23828125 C-386.65021501 164.55267262 -305.72027362 173.92024132 -235.01000977 155.86328125 C-216.30922095 150.78935723 -197.88917879 144.53588194 -180.45922852 136.03515625 C-179.11160747 135.39445721 -177.76395106 134.75383252 -176.41625977 134.11328125 C-151.75076444 122.23011056 -128.85156217 106.62761372 -108.69750977 88.08984375 C-106.58883324 86.15413022 -104.44136524 84.27695649 -102.27172852 82.41015625 C-95.79708663 76.73836996 -90.22739753 70.68288102 -84.83422852 63.96875 C-82.48775539 61.07039257 -80.07157833 58.24303368 -77.64672852 55.41015625 C-69.54863228 45.68992583 -62.3077556 35.30177267 -55.77172852 24.47265625 C-55.20820679 23.5755896 -55.20820679 23.5755896 -54.63330078 22.66040039 C-52.61719586 19.36288407 -51.14755076 16.27319037 -49.99438477 12.578125 C-48.34408231 7.86054692 -46.75877877 3.86272512 -42.45922852 1.03515625 C-33.7854744 -1.24126454 -24.47657655 -0.5185371 -15.58813477 -0.12451172 C-10.39110906 0.09981923 -5.20072199 0.04456667 0 0 Z " fill="#FFFFFF" transform="translate(806.459228515625,629.96484375)"/>
<path d="M0 0 C1.60307762 -0.01052147 1.60307762 -0.01052147 3.23854065 -0.02125549 C6.66818501 -0.0386658 10.09765682 -0.04510765 13.52734375 -0.046875 C14.69779236 -0.04754974 15.86824097 -0.04822449 17.07415771 -0.04891968 C33.74677341 -0.03361898 50.00848188 0.29388545 66.46484375 3.203125 C67.49963867 3.37473145 68.53443359 3.54633789 69.60058594 3.72314453 C127.93243127 13.49167714 183.30731848 36.997747 229.46484375 74.203125 C230.39167969 74.93789062 231.31851563 75.67265625 232.2734375 76.4296875 C243.47054562 85.41913884 253.68347794 95.328891 263.83984375 105.453125 C264.32015045 105.93075287 264.80045715 106.40838074 265.2953186 106.90048218 C276.00476213 117.56462717 276.00476213 117.56462717 280.46484375 123.203125 C280.46484375 123.863125 280.46484375 124.523125 280.46484375 125.203125 C272.84363014 126.42617245 265.22033601 127.63542159 257.59415817 128.8271122 C254.05302924 129.3809035 250.51278057 129.93941415 246.97412109 130.50878906 C242.90546161 131.1632284 238.83381567 131.79698616 234.76171875 132.4296875 C232.85685699 132.74046738 232.85685699 132.74046738 230.91351318 133.05752563 C229.73259094 133.23786346 228.5516687 133.41820129 227.33496094 133.60400391 C226.29571472 133.76832916 225.25646851 133.93265442 224.18572998 134.10195923 C218.57450231 134.31059132 215.3161637 130.48252724 211.33984375 126.953125 C192.48445989 110.55659359 172.50839999 96.93097795 150.46484375 85.203125 C149.81225586 84.8515332 149.15966797 84.49994141 148.48730469 84.13769531 C129.53110758 73.98432475 109.16705919 66.86436932 88.46484375 61.203125 C87.60165527 60.96609863 86.7384668 60.72907227 85.84912109 60.48486328 C21.10293228 43.18381226 -51.46131716 50.90463482 -111.53515625 80.203125 C-112.8827773 80.84382404 -114.23043371 81.48444873 -115.578125 82.125 C-140.24362032 94.00817069 -163.1428226 109.61066753 -183.296875 128.1484375 C-185.40555152 130.08415103 -187.55301953 131.96132476 -189.72265625 133.828125 C-196.19729814 139.49991129 -201.76698723 145.55540023 -207.16015625 152.26953125 C-209.50662938 155.16788868 -211.92280643 157.99524757 -214.34765625 160.828125 C-223.53849155 171.85998165 -231.495651 183.71898622 -238.6953125 196.12890625 C-239.60603516 197.65064453 -239.60603516 197.65064453 -240.53515625 199.203125 C-240.9417749 199.89881592 -241.34839355 200.59450684 -241.76733398 201.3112793 C-244.221538 203.93766058 -246.13013558 204.02883832 -249.66015625 204.546875 C-250.9121582 204.73934814 -252.16416016 204.93182129 -253.45410156 205.13012695 C-254.81439563 205.32153535 -256.17474861 205.51252551 -257.53515625 205.703125 C-258.92437974 205.91019122 -260.31337634 206.1187851 -261.70214844 206.32885742 C-264.55857672 206.75798842 -267.41622037 207.17694361 -270.27539062 207.58740234 C-274.34984916 208.17312604 -278.41913445 208.78856603 -282.48828125 209.41015625 C-287.13304785 210.11538259 -291.77788811 210.81955389 -296.42578125 211.50390625 C-297.34391602 211.63966064 -298.26205078 211.77541504 -299.20800781 211.9152832 C-301.53515625 212.203125 -301.53515625 212.203125 -304.53515625 212.203125 C-295.35873453 182.71865634 -276.76432876 155.05911205 -257.53515625 131.203125 C-256.80039062 130.27628906 -256.065625 129.34945312 -255.30859375 128.39453125 C-246.81752982 117.81820603 -237.52936361 108.09808226 -227.98568726 98.47842407 C-226.57671474 97.05753498 -225.17171778 95.63270712 -223.7668457 94.20776367 C-217.66791472 88.10120153 -211.3054462 82.55053459 -204.53515625 77.203125 C-203.78331055 76.59734619 -203.03146484 75.99156738 -202.25683594 75.36743164 C-191.77458906 66.9305889 -181.0180622 59.21676378 -169.53515625 52.203125 C-168.83535645 51.77547852 -168.13555664 51.34783203 -167.41455078 50.90722656 C-162.50025995 47.92455797 -157.5360528 45.03786407 -152.53515625 42.203125 C-151.8817627 41.82978027 -151.22836914 41.45643555 -150.55517578 41.07177734 C-105.85426676 15.74386913 -51.48184939 0.22672136 0 0 Z " fill="#FFFFFF" transform="translate(485.53515625,153.796875)"/>
<path d="M0 0 C-0.14438035 2.10426686 -0.29059774 4.20840769 -0.4375 6.3125 C-0.51871094 7.48425781 -0.59992188 8.65601563 -0.68359375 9.86328125 C-0.83529755 12.00925796 -1.01580583 14.14194847 -1.25390625 16.28027344 C-2.14699488 24.56367047 -2.15161043 32.81043049 -2.13037109 41.13134766 C-2.12505525 43.59934767 -2.13032116 46.06716207 -2.13671875 48.53515625 C-2.14065644 59.05744145 -1.74065392 69.50430976 -1 80 C-6.5865333 80.430144 -12.17328407 80.85730181 -17.76025391 81.28173828 C-19.65940462 81.4264324 -21.55849422 81.57193103 -23.45751953 81.71826172 C-26.19287557 81.92889416 -28.92844098 82.13659756 -31.6640625 82.34375 C-32.50804596 82.40937134 -33.35202942 82.47499268 -34.22158813 82.54260254 C-35.02196503 82.60266479 -35.82234192 82.66272705 -36.64697266 82.72460938 C-37.34424469 82.77790405 -38.04151672 82.83119873 -38.75991821 82.8861084 C-41.50333096 83.02559066 -44.25304372 83 -47 83 C-47 57.59 -47 32.18 -47 6 C-40.544375 5.01 -34.08875 4.02 -27.4375 3 C-25.41294678 2.68675781 -23.38839355 2.37351562 -21.30249023 2.05078125 C-19.67958714 1.80427633 -18.05662539 1.5581571 -16.43359375 1.3125 C-15.60573364 1.18294922 -14.77787354 1.05339844 -13.92492676 0.91992188 C-9.22194981 0.21373973 -4.75569478 -0.1340419 0 0 Z " fill="#FFFFFF" transform="translate(208,456)"/>
<path d="M0 0 C0.98630819 8.63003937 1.13225468 17.17739174 1.09765625 25.85546875 C1.09578619 27.25222218 1.09436507 28.64897627 1.09336853 30.04573059 C1.0895896 33.68374512 1.07980005 37.32171835 1.06866455 40.9597168 C1.05834978 44.68733156 1.05384956 48.41495314 1.04882812 52.14257812 C1.03817259 59.42840404 1.02115331 66.71419619 1 74 C0.67 74 0.34 74 0 74 C-0.17015625 73.27224365 -0.3403125 72.5444873 -0.515625 71.79467773 C-5.70000569 49.83172455 -11.97933555 28.82389305 -21.53125 8.32421875 C-23 5 -23 5 -23 3 C-19.91747911 2.49490361 -16.83386475 1.99682001 -13.75 1.5 C-12.87730469 1.35691406 -12.00460937 1.21382813 -11.10546875 1.06640625 C-10.26113281 0.93105469 -9.41679688 0.79570312 -8.546875 0.65625 C-7.77182617 0.53056641 -6.99677734 0.40488281 -6.19824219 0.27539062 C-4 0 -4 0 0 0 Z " fill="#FFFFFF" transform="translate(789,369)"/>
<path d="" fill="#FFFFFF" transform="translate(0,0)"/>
</svg>
